<svg width="235" height="39" viewBox="0 0 235 39" fill="none" xmlns="http://www.w3.org/2000/svg">
<path d="M16.043 26.8064C13.8667 25.998 11.6281 25.8737 9.57614 26.4333C8.14596 26.8064 6.77796 27.5526 5.53432 28.4853L4.66376 29.2315L4.41504 29.4802L4.97467 29.9777C5.03685 29.9777 5.03686 30.0399 5.09904 30.102C5.22341 30.2264 5.34778 30.2886 5.53432 30.4129L5.9074 30.6617L6.28049 30.3508C6.34268 30.2886 6.46704 30.1642 6.5914 30.102C7.71068 29.1693 8.95431 28.5475 10.2601 28.2366C11.939 27.8013 13.7423 27.8635 15.5456 28.5475C17.0379 29.1071 20.0849 29.7911 23.7536 28.2366L23.878 28.1744L24.0645 27.9879C24.0645 27.9257 24.1267 27.9257 24.1889 27.8635C24.4998 27.4904 24.8107 27.1173 25.0594 26.682L26.303 24.7544L24.3132 25.8737C21.3907 27.4904 18.7169 27.8013 16.043 26.8064Z" fill="#FFCC00"/>
<path d="M7.52364 20.0906C9.20255 19.6553 11.0058 19.7175 12.8091 20.4015C14.7989 21.1477 19.8978 22.2048 25.6186 17.0437L26.5513 16.111L26.6135 16.0488L26.8622 15.8001L26.7378 15.4891C26.6756 15.2404 26.5513 14.9295 26.4269 14.6186L26.116 13.748L25.4942 14.3699C25.432 14.4942 25.3076 14.5564 25.1833 14.6808C22.4473 17.479 18.2189 20.3393 13.3687 18.5982C11.1924 17.7899 8.95382 17.6655 6.90182 18.2251C4.91201 18.7848 3.17091 19.8419 1.55418 21.3342V21.2721L0.621456 22.267C0.621456 22.3291 0.559286 22.3292 0.497104 22.3913L0.310547 22.5779L0.372732 22.8266C0.434914 23.1375 0.559274 23.4484 0.621456 23.7593L0.994551 24.7542L1.61637 23.9459C1.67855 23.8215 1.80291 23.7593 1.86509 23.635C3.17091 22.4535 4.97419 20.7746 7.52364 20.0906Z" fill="#FFCC00"/>
<path d="M1.49238 18.9715C2.92256 17.4792 4.53928 16.5464 6.28037 16.049C7.95928 15.6137 9.76255 15.6759 11.5658 16.3599C17.1622 18.4119 22.0124 15.0541 24.1266 13.2508L24.9349 12.4424L25.2458 12.1937L24.9971 11.8206C24.8106 11.6341 24.6862 11.3854 24.4997 11.1366L24.1266 10.6392L23.6913 11.0744C23.6291 11.1366 23.5047 11.261 23.4426 11.3232C20.8309 13.8104 16.7891 16.3599 12.1876 14.6188C10.0113 13.8104 7.77273 13.6861 5.72074 14.2457C4.41492 14.6188 3.17128 15.2406 1.92764 16.049L0.621818 17.1061C0.497455 17.2304 0.435273 17.2926 0.310909 17.417L0.186557 17.5413V17.7279C0.124375 18.1632 0.124367 18.5984 0.0621856 18.9715L0 20.5261L1.0571 19.4068C1.18146 19.2824 1.30583 19.0959 1.49238 18.9715Z" fill="#FFCC00"/>
<path d="M17.8466 31.0349L17.7222 31.408L17.8466 31.0349C17.66 30.9727 17.5357 30.9105 17.3491 30.8483C15.1728 30.04 12.9342 29.9156 10.8822 30.4753C10.4469 30.5996 10.0117 30.724 9.57639 30.9105L8.08401 31.5945L7.71094 31.7811L8.95457 32.2163C9.32766 32.3407 9.70075 32.4651 10.0738 32.5894L10.2604 32.6516L10.4469 32.5894C10.6335 32.5273 10.82 32.4029 11.0066 32.4029C11.1309 32.4029 11.2553 32.3407 11.3797 32.2785C12.872 31.9054 14.4887 31.9054 16.2298 32.4651C16.4164 32.5272 16.5408 32.5894 16.7273 32.6516L17.0382 32.776L17.2247 32.7138C17.66 32.5894 18.1575 32.4651 18.5306 32.2785L20.2717 31.6567L18.4684 31.2214C18.2818 31.1592 18.0331 31.0971 17.8466 31.0349Z" fill="#FFCC00"/>
<path d="M27.3597 18.1631L26.427 19.0958C26.3027 19.2202 26.1783 19.3445 26.0539 19.4689C23.5045 21.894 19.4005 24.5056 14.799 22.7645C12.6227 21.9562 10.3841 21.8318 8.33213 22.3915C6.40449 22.9511 4.66338 23.946 3.10884 25.4384L2.30048 26.3089L2.05176 26.6198L2.30048 26.9929C2.48703 27.2416 2.6114 27.4282 2.73576 27.6769L3.10884 28.2365L3.54412 27.6769C3.6063 27.6147 3.73066 27.4904 3.79284 27.4282C5.2852 25.8114 6.90193 24.8165 8.76739 24.3191C10.4463 23.8838 12.2496 23.946 14.0528 24.63C15.6074 25.1896 17.2241 25.3762 18.8408 25.1896C21.7012 24.8787 24.5616 23.262 26.6758 21.4587C26.8001 21.3344 26.9245 21.2722 27.0488 21.1478L27.2354 20.9613V20.7747C27.2354 20.4016 27.2976 19.9664 27.2976 19.5933L27.3597 18.1631Z" fill="#FFCC00"/>
<path d="M3.73045 12.4423L3.54391 12.0692L3.73045 12.4423C4.10354 12.2557 4.53883 12.1313 4.91192 12.007C6.59083 11.5717 8.3941 11.6339 10.1974 12.3179C11.3788 12.7532 12.5603 12.9397 13.8661 12.9397C16.4777 12.9397 19.0894 12.007 21.5145 10.2037L22.4472 9.45752L22.7581 9.20879L22.1985 8.77351C22.0119 8.58697 21.7632 8.40043 21.5145 8.27607L21.1414 8.02734L20.8305 8.27607C20.7061 8.33825 20.6439 8.46261 20.5195 8.52479C17.2239 11.0121 13.9283 11.6961 10.8192 10.5146C8.58065 9.70625 6.34209 9.51971 4.10355 10.2037C3.917 10.2659 3.73045 10.3281 3.48173 10.3902L3.35738 10.4524L3.17082 10.639C3.17082 10.7012 3.10865 10.7012 3.04647 10.7633C2.79774 11.1364 2.48682 11.4473 2.23809 11.8204L1.05664 13.6237L2.98428 12.6288C3.29519 12.6288 3.54391 12.5044 3.73045 12.4423Z" fill="#FFCC00"/>
<path d="M8.82967 8.21393L9.01621 8.27611C9.82457 8.58702 11.0682 8.89793 12.6228 8.89793C14.2395 8.89793 15.794 8.52484 17.3486 7.90302L19.2762 6.97029L17.9704 6.53503C17.5973 6.41067 17.2242 6.2863 16.7889 6.22412H16.6024L16.4159 6.28629C16.2293 6.34847 16.0428 6.47285 15.8562 6.53503C13.9908 7.21903 12.1253 7.34339 10.322 6.84594C10.1355 6.78376 9.94894 6.72156 9.7624 6.65938L9.57586 6.5972L9.3893 6.65938C9.01621 6.78375 8.64313 6.90812 8.27004 7.09466L6.83984 7.71648L8.33222 8.15174C8.45659 8.08956 8.64312 8.15175 8.82967 8.21393Z" fill="#FFCC00"/>
<path d="M39.5241 30V15.86H43.0241V30H39.5241ZM39.3281 13.2V9.784H43.2201V13.2H39.3281ZM53.9929 30.28C52.4062 30.28 50.9409 30.084 49.5969 29.692C48.2716 29.2813 47.1329 28.7213 46.1809 28.012L47.3009 25.184C47.9356 25.632 48.5982 26.0147 49.2889 26.332C49.9796 26.6307 50.7169 26.864 51.5009 27.032C52.2849 27.1813 53.1156 27.256 53.9929 27.256C55.4676 27.256 56.5316 27.0133 57.1849 26.528C57.8382 26.0427 58.1649 25.408 58.1649 24.624C58.1649 23.9333 57.9409 23.4107 57.4929 23.056C57.0449 22.6827 56.2422 22.3747 55.0849 22.132L51.9209 21.488C50.1102 21.1147 48.7569 20.4893 47.8609 19.612C46.9649 18.7347 46.5169 17.5587 46.5169 16.084C46.5169 14.852 46.8436 13.7787 47.4969 12.864C48.1502 11.9493 49.0649 11.24 50.2409 10.736C51.4169 10.232 52.7889 9.98 54.3569 9.98C55.7569 9.98 57.0542 10.1853 58.2489 10.596C59.4436 10.988 60.4422 11.5573 61.2449 12.304L60.1249 14.992C59.3222 14.32 58.4449 13.8253 57.4929 13.508C56.5409 13.172 55.4769 13.004 54.3009 13.004C52.9756 13.004 51.9396 13.2653 51.1929 13.788C50.4649 14.292 50.1009 14.992 50.1009 15.888C50.1009 16.5787 50.3249 17.1293 50.7729 17.54C51.2396 17.9507 52.0236 18.268 53.1249 18.492L56.2609 19.108C58.1276 19.4813 59.5089 20.0973 60.4049 20.956C61.3009 21.796 61.7489 22.9347 61.7489 24.372C61.7489 25.548 61.4316 26.584 60.7969 27.48C60.1622 28.3573 59.2662 29.048 58.1089 29.552C56.9516 30.0373 55.5796 30.28 53.9929 30.28ZM70.3318 30.28C69.0998 30.28 68.0171 29.9907 67.0838 29.412C66.1504 28.8147 65.4224 27.9653 64.8998 26.864C64.3771 25.7627 64.1158 24.4467 64.1158 22.916C64.1158 21.3853 64.3771 20.0787 64.8998 18.996C65.4224 17.8947 66.1504 17.0547 67.0838 16.476C68.0171 15.8787 69.0998 15.58 70.3318 15.58C71.5264 15.58 72.5718 15.8787 73.4678 16.476C74.3824 17.0547 74.9891 17.8387 75.2878 18.828H74.9798L75.2878 15.86H78.6478C78.5918 16.4387 78.5358 17.0267 78.4798 17.624C78.4424 18.2213 78.4238 18.8093 78.4238 19.388V30H74.9518L74.9238 27.088H75.2598C74.9611 28.0587 74.3544 28.8333 73.4398 29.412C72.5251 29.9907 71.4891 30.28 70.3318 30.28ZM71.3118 27.592C72.4131 27.592 73.2998 27.2093 73.9718 26.444C74.6438 25.66 74.9798 24.484 74.9798 22.916C74.9798 21.348 74.6438 20.1813 73.9718 19.416C73.2998 18.6507 72.4131 18.268 71.3118 18.268C70.2104 18.268 69.3238 18.6507 68.6518 19.416C67.9798 20.1813 67.6438 21.348 67.6438 22.916C67.6438 24.484 67.9704 25.66 68.6238 26.444C69.2958 27.2093 70.1918 27.592 71.3118 27.592ZM86.2423 30L80.1383 15.86H83.8623L88.2863 26.92H87.4183L91.9543 15.86H95.4543L89.3223 30H86.2423ZM103.887 30.28C101.517 30.28 99.6594 29.6267 98.3154 28.32C96.9714 27.0133 96.2994 25.2213 96.2994 22.944C96.2994 21.4693 96.5887 20.1813 97.1674 19.08C97.746 17.9787 98.5487 17.12 99.5754 16.504C100.621 15.888 101.834 15.58 103.215 15.58C104.578 15.58 105.717 15.8693 106.631 16.448C107.546 17.0267 108.237 17.8387 108.703 18.884C109.189 19.9293 109.431 21.152 109.431 22.552V23.476H99.1274V21.628H106.939L106.463 22.02C106.463 20.7133 106.183 19.7147 105.623 19.024C105.082 18.3333 104.289 17.988 103.243 17.988C102.086 17.988 101.19 18.3987 100.555 19.22C99.9394 20.0413 99.6314 21.1893 99.6314 22.664V23.028C99.6314 24.5587 100.005 25.7067 100.751 26.472C101.517 27.2187 102.59 27.592 103.971 27.592C104.774 27.592 105.521 27.4893 106.211 27.284C106.921 27.06 107.593 26.7053 108.227 26.22L109.263 28.572C108.591 29.1133 107.789 29.5333 106.855 29.832C105.922 30.1307 104.933 30.28 103.887 30.28ZM112.703 30V10.26H115.867L123.119 26.584H122.251L129.503 10.26H132.639V30H129.363V15.356H130.371L123.735 30H121.579L114.943 15.356H115.979V30H112.703ZM143.142 30.28C141.686 30.28 140.426 29.9813 139.362 29.384C138.298 28.7867 137.468 27.9373 136.87 26.836C136.292 25.7347 136.002 24.428 136.002 22.916C136.002 21.404 136.292 20.1067 136.87 19.024C137.468 17.9227 138.298 17.0733 139.362 16.476C140.426 15.8787 141.686 15.58 143.142 15.58C144.598 15.58 145.858 15.8787 146.922 16.476C148.005 17.0733 148.836 17.9227 149.414 19.024C150.012 20.1067 150.31 21.404 150.31 22.916C150.31 24.428 150.012 25.7347 149.414 26.836C148.836 27.9373 148.005 28.7867 146.922 29.384C145.858 29.9813 144.598 30.28 143.142 30.28ZM143.142 27.592C144.244 27.592 145.121 27.2093 145.774 26.444C146.428 25.66 146.754 24.484 146.754 22.916C146.754 21.348 146.428 20.1813 145.774 19.416C145.121 18.6507 144.244 18.268 143.142 18.268C142.041 18.268 141.164 18.6507 140.51 19.416C139.857 20.1813 139.53 21.348 139.53 22.916C139.53 24.484 139.857 25.66 140.51 26.444C141.164 27.2093 142.041 27.592 143.142 27.592ZM153.329 30V19.388C153.329 18.8093 153.31 18.2213 153.273 17.624C153.235 17.0267 153.179 16.4387 153.105 15.86H156.493L156.773 18.66H156.437C156.885 17.6707 157.547 16.9147 158.425 16.392C159.302 15.8507 160.319 15.58 161.477 15.58C163.138 15.58 164.389 16.0467 165.229 16.98C166.069 17.9133 166.489 19.3693 166.489 21.348V30H162.989V21.516C162.989 20.3773 162.765 19.5653 162.317 19.08C161.887 18.576 161.234 18.324 160.357 18.324C159.274 18.324 158.415 18.66 157.781 19.332C157.146 20.004 156.829 20.9 156.829 22.02V30H153.329ZM177.032 30.28C174.661 30.28 172.804 29.6267 171.46 28.32C170.116 27.0133 169.444 25.2213 169.444 22.944C169.444 21.4693 169.733 20.1813 170.312 19.08C170.891 17.9787 171.693 17.12 172.72 16.504C173.765 15.888 174.979 15.58 176.36 15.58C177.723 15.58 178.861 15.8693 179.776 16.448C180.691 17.0267 181.381 17.8387 181.848 18.884C182.333 19.9293 182.576 21.152 182.576 22.552V23.476H172.272V21.628H180.084L179.608 22.02C179.608 20.7133 179.328 19.7147 178.768 19.024C178.227 18.3333 177.433 17.988 176.388 17.988C175.231 17.988 174.335 18.3987 173.7 19.22C173.084 20.0413 172.776 21.1893 172.776 22.664V23.028C172.776 24.5587 173.149 25.7067 173.896 26.472C174.661 27.2187 175.735 27.592 177.116 27.592C177.919 27.592 178.665 27.4893 179.356 27.284C180.065 27.06 180.737 26.7053 181.372 26.22L182.408 28.572C181.736 29.1133 180.933 29.5333 180 29.832C179.067 30.1307 178.077 30.28 177.032 30.28ZM185.041 36.356L184.229 33.584C185.106 33.3973 185.844 33.1827 186.441 32.94C187.038 32.6973 187.533 32.38 187.925 31.988C188.317 31.596 188.644 31.092 188.905 30.476L189.605 28.824L189.521 30.196L183.361 15.86H187.085L191.509 26.892H190.697L195.149 15.86H198.677L192.237 30.784C191.808 31.792 191.341 32.6227 190.837 33.276C190.333 33.948 189.792 34.48 189.213 34.872C188.634 35.2827 188 35.6 187.309 35.824C186.618 36.048 185.862 36.2253 185.041 36.356ZM198.792 30V26.108H202.712V30H198.792ZM211.508 30.28C210.276 30.28 209.193 29.9907 208.26 29.412C207.326 28.8147 206.598 27.9653 206.076 26.864C205.553 25.7627 205.292 24.4467 205.292 22.916C205.292 21.3853 205.553 20.0787 206.076 18.996C206.598 17.8947 207.326 17.0547 208.26 16.476C209.193 15.8787 210.276 15.58 211.508 15.58C212.702 15.58 213.748 15.8787 214.644 16.476C215.558 17.0547 216.165 17.8387 216.464 18.828H216.156L216.464 15.86H219.824C219.768 16.4387 219.712 17.0267 219.656 17.624C219.618 18.2213 219.6 18.8093 219.6 19.388V30H216.128L216.1 27.088H216.436C216.137 28.0587 215.53 28.8333 214.616 29.412C213.701 29.9907 212.665 30.28 211.508 30.28ZM212.488 27.592C213.589 27.592 214.476 27.2093 215.148 26.444C215.82 25.66 216.156 24.484 216.156 22.916C216.156 21.348 215.82 20.1813 215.148 19.416C214.476 18.6507 213.589 18.268 212.488 18.268C211.386 18.268 210.5 18.6507 209.828 19.416C209.156 20.1813 208.82 21.348 208.82 22.916C208.82 24.484 209.146 25.66 209.8 26.444C210.472 27.2093 211.368 27.592 212.488 27.592ZM223.411 30V15.86H226.911V30H223.411ZM223.215 13.2V9.784H227.107V13.2H223.215Z" fill="white"/>
</svg>
